<svg xmlns:dc="http://purl.org/dc/elements/1.1/" xmlns:cc="http://creativecommons.org/ns#" xmlns:rdf="http://www.w3.org/1999/02/22-rdf-syntax-ns#" xmlns:svg="http://www.w3.org/2000/svg" xmlns="http://www.w3.org/2000/svg" xmlns:sodipodi="http://sodipodi.sourceforge.net/DTD/sodipodi-0.dtd" xmlns:inkscape="http://www.inkscape.org/namespaces/inkscape" width="132.7" height="68.360001" id="svg3186" version="1.1" inkscape:version="0.47 r22583" sodipodi:docname="New document 3">
  <defs id="defs3188">
    <inkscape:perspective sodipodi:type="inkscape:persp3d" inkscape:vp_x="0 : 526.18109 : 1" inkscape:vp_y="0 : 1000 : 0" inkscape:vp_z="744.09448 : 526.18109 : 1" inkscape:persp3d-origin="372.04724 : 350.78739 : 1" id="perspective3194"/>
    <inkscape:perspective id="perspective3180" inkscape:persp3d-origin="0.5 : 0.33333333 : 1" inkscape:vp_z="1 : 0.5 : 1" inkscape:vp_y="0 : 1000 : 0" inkscape:vp_x="0 : 0.5 : 1" sodipodi:type="inkscape:persp3d"/>
  </defs>
  <sodipodi:namedview id="base" pagecolor="#ffffff" bordercolor="#666666" borderopacity="1.0" inkscape:pageopacity="0.0" inkscape:pageshadow="2" inkscape:zoom="3.9881579" inkscape:cx="68.571429" inkscape:cy="31.428571" inkscape:document-units="px" inkscape:current-layer="layer1" showgrid="false" inkscape:window-width="1024" inkscape:window-height="678" inkscape:window-x="-4" inkscape:window-y="-4" inkscape:window-maximized="1"/>
  <metadata id="metadata3191">
    <rdf:RDF>
      <cc:Work rdf:about="">
        <dc:format>image/svg+xml</dc:format>
        <dc:type rdf:resource="http://purl.org/dc/dcmitype/StillImage"/>
        <dc:title/>
      </cc:Work>
    </rdf:RDF>
  </metadata>
  <g inkscape:label="Layer 1" inkscape:groupmode="layer" id="layer1" transform="translate(-183.2208,-428.61285)">
    <path d="m 238.53201,467.04311 -1.14125,1.18 c -1.34,1.3 -2.55875,1.4575 -3.6225,0.395 -1.1025,-1.1025 -0.945,-2.32375 0.355,-3.6225 l 1.18,-1.18125 c 1.34,-1.33875 2.55875,-1.45625 3.6225,-0.39375 1.06375,1.0625 0.945,2.28375 -0.39375,3.6225 z m -18.11,-36.02625 c 1.14,1.4575 1.14,1.85125 -0.5125,3.11125 l -11.73375,8.85875 c -0.35375,0.275 -0.47125,0.7475 0.31625,0.7475 l 16.6925,0 c 4.01625,0 4.725,0.905 4.725,4.725 l 0,4.8025 c 0,0.985 0.315,1.655 1.575,1.655 l 10.43375,0 c 1.26,0 1.575,-0.67 1.575,-1.655 l 0,-7.24375 c 0,-2.0475 0.51125,-2.28375 2.3625,-2.28375 1.85,0 2.3625,0.23625 2.3625,2.28375 l 0,7.24375 c 0,4.41 -1.1025,5.5125 -5.5125,5.5125 l -58.23125,0 c 0.315,-2.835 2.835,-3.8575 6.18125,-3.8575 l 33.11125,0 c 1.025,0 1.4175,-0.27625 1.4175,-1.26125 l 0,-4.8025 c 0,-0.86625 -0.23625,-1.26 -1.4175,-1.26 l -18.38625,0 c -3.07,0 -3.97625,-1.65375 -3.97625,-3.07125 0,-1.3 0.94375,-2.40125 2.205,-3.34625 l 13.74125,-10.43375 c 1.6525,-1.26 1.92875,-1.18125 3.07125,0.275 z m 32.52,1.575 c 0,-2.0475 0.5125,-2.28375 2.36125,-2.28375 1.85125,0 2.3625,0.23625 2.3625,2.28375 l 0,20.67 c 0,0.985 0.315,1.655 1.57625,1.655 l 15.35375,0 c 1.3,0 1.575,-0.67 1.575,-1.655 l 0,-7.24375 c 0,-2.0475 0.5125,-2.28375 2.36375,-2.28375 1.85,0 2.36125,0.23625 2.36125,2.28375 l 0,7.24375 c 0,0.985 0.315,1.655 1.575,1.655 l 10.43375,0 c 1.29875,0 1.57625,-0.67 1.57625,-1.655 l 0,-7.24375 c 0,-2.0475 0.51,-2.28375 2.36125,-2.28375 1.85125,0 2.36125,0.23625 2.36125,2.28375 l 0,7.24375 c 0,0.985 0.31625,1.655 1.57625,1.655 l 7.87375,0 c 1.29875,0 1.575,-0.67 1.575,-1.655 l 0,-7.24375 c 0,-2.0475 0.5125,-2.28375 2.3625,-2.28375 1.85,0 2.3625,0.23625 2.3625,2.28375 l 0,7.24375 c 0,4.41 -1.1025,5.5125 -5.5125,5.5125 l -50.98625,0 c -4.41,0 -5.5125,-1.1025 -5.5125,-5.5125 l 0,-20.67" style="fill:#005aaa;fill-opacity:1;fill-rule:nonzero;stroke:none" id="path78"/>
    <path d="m 293.30576,493.84186 c 0,-5.5925 5.05125,-12.89625 14.9,-12.89625 1.1275,0 1.5025,0.75125 1.5025,1.7525 l 0,4.88375 c 0,1.37625 -0.125,1.795 -1.71,1.795 -1.5875,0 -1.7125,-0.41875 -1.7125,-1.795 l 0,-2.54625 c 0,-0.46 -0.0825,-0.5425 -0.25,-0.5425 -5.25875,0 -9.14125,5.4675 -9.14125,7.8875 0,0.37625 0.0425,0.585 0.92,0.585 l 12.72875,0 c 2.37875,0 4.34,0.7525 4.6325,3.13 l -19.4075,0 c -1.41875,0 -2.4625,-0.41625 -2.4625,-2.25375 z m -5.71625,0.5425 0,-9.7675 c 0,-0.20625 -0.085,-0.24875 -0.3775,-0.24875 l -0.70875,0 c -1.41875,0 -1.83625,-0.375 -1.83625,-1.6275 0,-1.2525 0.4175,-1.6275 1.83625,-1.6275 l 2.9625,0 c 1.0025,0 1.6275,0.41625 1.6275,1.5425 l 0,11.72875 c 0,1.585 -0.45875,1.83625 -1.7525,1.83625 -1.33625,0 -1.75125,-0.25125 -1.75125,-1.83625 z m -17.27875,1.71125 c -3.2575,0 -4.13375,-0.87625 -4.13375,-4.09 l 0,-21.62 c 0,-1.585 0.46,-1.795 1.87875,-1.795 1.41875,0 1.8775,0.21 1.8775,1.795 l 0,21.62 c 0,0.62625 0.1675,0.96 0.91875,0.96 l 9.64125,0 c 0.875,0 0.9175,-0.20875 0.9175,-0.585 0,-1.58625 -2.21125,-6.0525 -8.9725,-8.1375 -1.16875,-0.33375 -1.29375,-1.0025 -0.91875,-2.0875 0.46,-1.25125 1.21125,-1.21 2.17,-0.96 7.9725,2.3375 11.3525,7.555 11.3525,12.64625 0,1.8375 -1.085,2.25375 -2.46125,2.25375 l -12.27,0 z m -23.24875,0 c -1.3775,0 -2.46125,-0.41625 -2.46125,-2.25375 0,-7.7625 8.5125,-12.89625 11.76875,-12.89625 1.1275,0 1.5025,0.75125 1.5025,1.7525 l 0,4.88375 c 0,1.37625 -0.0837,1.795 -1.71125,1.795 -1.58625,0 -1.71125,-0.41875 -1.71125,-1.795 l 0,-2.505 c 0,-0.0838 0,-0.125 -0.0837,-0.125 -1.3775,0 -6.135,4.09125 -6.135,7.42875 0,0.37625 0.0413,0.585 0.9175,0.585 l 9.7675,0 c 0.75,0 0.91875,-0.33375 0.91875,-0.96 l 0,-13.23125 c 0,-1.58625 0.45875,-1.835 1.87625,-1.835 1.42,0 1.87875,0.24875 1.87875,1.835 l 0,13.23125 c 0,3.21375 -0.87625,4.09 -4.13125,4.09 l -12.39625,0 z m 42.905,-19.0725 -0.7925,0.7925 c -1.085,1.085 -2.045,1.16875 -2.88,0.33375 -0.87625,-0.8775 -0.75125,-1.8375 0.2925,-2.87875 l 0.7925,-0.83625 c 1.085,-1.0425 2.045,-1.16875 2.88,-0.29125 0.8775,0.835 0.75125,1.79375 -0.2925,2.88 z m -50.66875,19.0725 c 2.88125,0 3.54875,-0.71 3.54875,-3.5475 l 0,-1.6275 c 0,-2.83875 -0.58375,-3.54875 -3.54875,-3.54875 l -9.515,0 c -0.125,0 -0.20875,-0.0413 -0.20875,-0.16625 0,-0.37625 4.04875,-2.87875 11.7275,-3.0475 1.16875,-0.0412 1.46125,-0.54125 1.3775,-1.66875 -0.0413,-0.96 -0.375,-1.54375 -1.795,-1.54375 -10.1825,0 -15.98375,4.96625 -15.98375,7.6375 0,1.16875 0.67875,1.92125 3.32375,1.92125 l 10.07375,0 c 0.75125,0 0.83375,0.16625 0.83375,0.70875 l 0,1.04375 c 0,0.5825 -0.16625,0.70875 -0.83375,0.70875 l -13.52375,0 c -2.37875,0 -4.34,0.7525 -4.59125,3.13 l 19.115,0" style="fill:#f99c1c;fill-opacity:1;fill-rule:nonzero;stroke:none" id="path80"/>
  </g>
</svg>