<svg xmlns="http://www.w3.org/2000/svg" xmlns:xlink="http://www.w3.org/1999/xlink" version="1.1" id="Layer_1" x="0px" y="0px" viewBox="0 0 1444.2 532.4" style="enable-background:new 0 0 1444.2 532.4;" xml:space="preserve">
<style type="text/css">
	.st0{fill:#0c3c60;}
	.st1{opacity:3.000000e-02;enable-background:new    ;}
	.st2{fill:#FFFFFF;}
	.st3{clip-path:url(#SVGID_2_);}
	.st4{opacity:6.000000e-02;}
	.st5{fill:none;stroke:#FFFFFF;stroke-miterlimit:10;}
	.st6{fill:none;stroke:#FFFFFF;}
</style>
<g>
	<rect id="Rectangle_6_copy_4-3" class="st0" width="1444.2" height="532.4"/>
	<!-- <g class="st1">
		<path class="st2" d="M443.6,140.6V184h-29.9V60.3h48.5c14.7,0,25.9,3.6,33.6,10.9s11.6,17.1,11.6,29.5c0,7.7-1.7,14.6-5.2,20.6    c-3.4,6-8.5,10.7-15.3,14.2c-6.8,3.4-15,5.2-24.7,5.2L443.6,140.6L443.6,140.6z M476.8,100.7c0-10.9-6-16.3-18-16.3h-15.2v32.2    h15.2C470.8,116.6,476.8,111.3,476.8,100.7z "/>
		<path class="st2" d="M612.6,66.5c9.5,5.4,17,13,22.5,22.6s8.2,20.5,8.2,32.6s-2.8,23-8.3,32.7c-5.5,9.7-13.1,17.2-22.6,22.7    c-9.5,5.4-20,8.1-31.6,8.1c-11.6,0-22.1-2.7-31.6-8.1s-17-13-22.6-22.7c-5.5-9.7-8.3-20.6-8.3-32.7s2.8-23,8.3-32.6    c5.5-9.6,13.1-17.2,22.6-22.6s20-8.1,31.6-8.1C592.5,58.3,603.1,61.1,612.6,66.5z M557.5,95.7c-5.8,6.4-8.7,15-8.7,26    c0,10.8,2.9,19.5,8.7,25.9c5.8,6.4,13.6,9.6,23.4,9.6c9.7,0,17.4-3.2,23.3-9.6c5.8-6.4,8.8-15,8.8-25.9s-2.9-19.5-8.7-25.9    c-5.8-6.4-13.6-9.6-23.4-9.6C571.1,86.2,563.3,89.4,557.5,95.7z"/>
		<path class="st2" d="M828.4,60.3L798.7,184h-37.1l-19.8-82.8L721.9,184h-37.1L655.2,60.3h32.6l15.9,89.6l21.7-89.6h32.7l21.7,89.6    l16.1-89.6H828.4z"/>
		<path class="st2" d="M874.1,84.1V110h41.8v22.6h-41.8v27.5h47.1v24h-77V60.4h77v23.8h-47.1V84.1z"/>
		<path class="st2" d="M1001.6,184l-26.8-46.7H968V184h-29.9V60.3h51.1c9.8,0,18.1,1.7,24.9,5.1s11.8,8,15.2,13.9    c3.4,5.9,5.1,12.6,5.1,20.2c0,9-2.5,16.6-7.4,22.9c-5,6.3-12.2,10.6-21.6,12.9l29.4,48.7H1001.6z M968,116.8h18.5    c6,0,10.3-1.3,13.1-3.9c2.8-2.6,4.2-6.5,4.2-11.6c0-4.9-1.4-8.8-4.3-11.5c-2.9-2.8-7.2-4.2-13-4.2H968L968,116.8L968,116.8z"/>
	</g> -->
	<g>
		<g>
			<defs>
				<rect id="SVGID_1_" y="-5.2" width="1444.2" height="537.6"/>
			</defs>
			<clipPath id="SVGID_2_">
				<use xlink:href="#SVGID_1_" style="overflow:visible;"/>
			</clipPath>
			<g id="Mask_Group_6" class="st3">
				<g id="Group_110" transform="translate(3644 1848)" class="st4">
					<line id="Line_1" class="st5" x1="-3796" y1="-1850.1" x2="-2049.5" y2="-1850.1"/>
					<line id="Line_2" class="st5" x1="-3796" y1="-1817.2" x2="-2049.4" y2="-1817.2"/>
					<line id="Line_3" class="st5" x1="-3796" y1="-1783.4" x2="-2049.4" y2="-1783.4"/>
					<line id="Line_4" class="st5" x1="-3796" y1="-1749.6" x2="-2049.4" y2="-1749.6"/>
					<line id="Line_5" class="st5" x1="-3796" y1="-1715.6" x2="-2049.4" y2="-1715.6"/>
					<line id="Line_6" class="st5" x1="-3796" y1="-1681.8" x2="-2049.4" y2="-1681.8"/>
					<line id="Line_7" class="st5" x1="-3796" y1="-1648" x2="-2049.4" y2="-1648"/>
					<line id="Line_8" class="st5" x1="-3796" y1="-1614.2" x2="-2049.4" y2="-1614.2"/>
					<line id="Line_9" class="st5" x1="-3796" y1="-1580.2" x2="-2049.4" y2="-1580.2"/>
					<line id="Line_10" class="st5" x1="-3796" y1="-1546.4" x2="-2049.4" y2="-1546.4"/>
					<line id="Line_11" class="st5" x1="-3796" y1="-1512.6" x2="-2049.4" y2="-1512.6"/>
					<line id="Line_12" class="st5" x1="-3796" y1="-1478.7" x2="-2049.4" y2="-1478.7"/>
					<line id="Line_13" class="st5" x1="-3796" y1="-1444.8" x2="-2049.4" y2="-1444.8"/>
					<line id="Line_14" class="st5" x1="-3796" y1="-1411" x2="-2049.4" y2="-1411"/>
					<line id="Line_15" class="st5" x1="-3796" y1="-1377.1" x2="-2049.4" y2="-1377.1"/>
					<line id="Line_16" class="st5" x1="-3796" y1="-1343.3" x2="-2049.4" y2="-1343.3"/>
					<line id="Line_17" class="st5" x1="-3796" y1="-1309.9" x2="-2049.5" y2="-1309.9"/>
					<line id="Line_18" class="st5" x1="-3796" y1="-1309.9" x2="-3796" y2="-1850.1"/>
					<line id="Line_19" class="st5" x1="-3753.6" y1="-1309.4" x2="-3753.6" y2="-1851.2"/>
					<line id="Line_20" class="st5" x1="-3711.2" y1="-1309.4" x2="-3711.2" y2="-1851.2"/>
					<line id="Line_21" class="st5" x1="-3668.8" y1="-1309.4" x2="-3668.8" y2="-1851.2"/>
					<line id="Line_22" class="st5" x1="-3626.3" y1="-1309.4" x2="-3626.3" y2="-1851.2"/>
					<line id="Line_23" class="st5" x1="-3583.9" y1="-1309.4" x2="-3583.9" y2="-1851.2"/>
					<line id="Line_24" class="st5" x1="-3541.5" y1="-1309.4" x2="-3541.5" y2="-1851.2"/>
					<line id="Line_25" class="st5" x1="-3499.1" y1="-1309.4" x2="-3499.1" y2="-1851.2"/>
					<line id="Line_26" class="st5" x1="-3456.6" y1="-1309.4" x2="-3456.6" y2="-1851.2"/>
					<line id="Line_27" class="st5" x1="-3414.2" y1="-1309.4" x2="-3414.2" y2="-1851.2"/>
					<line id="Line_28" class="st5" x1="-3371.7" y1="-1309.4" x2="-3371.7" y2="-1851.2"/>
					<line id="Line_29" class="st5" x1="-3329.3" y1="-1309.4" x2="-3329.3" y2="-1851.2"/>
					<line id="Line_30" class="st5" x1="-3286.9" y1="-1309.4" x2="-3286.9" y2="-1851.2"/>
					<line id="Line_31" class="st5" x1="-3244.5" y1="-1309.4" x2="-3244.5" y2="-1851.2"/>
					<line id="Line_32" class="st5" x1="-3202.1" y1="-1309.4" x2="-3202.1" y2="-1851.2"/>
					<line id="Line_33" class="st5" x1="-3159.7" y1="-1309.4" x2="-3159.7" y2="-1851.2"/>
					<line id="Line_34" class="st5" x1="-3117.1" y1="-1309.4" x2="-3117.1" y2="-1851.2"/>
					<line id="Line_35" class="st5" x1="-3075.7" y1="-1309.4" x2="-3075.7" y2="-1851.2"/>
					<line id="Line_36" class="st5" x1="-3033.3" y1="-1309.4" x2="-3033.3" y2="-1851.2"/>
					<line id="Line_37" class="st5" x1="-2990.9" y1="-1309.4" x2="-2990.9" y2="-1851.2"/>
					<line id="Line_38" class="st5" x1="-2948.5" y1="-1309.4" x2="-2948.5" y2="-1851.2"/>
					<line id="Line_39" class="st5" x1="-2906.1" y1="-1309.4" x2="-2906.1" y2="-1851.2"/>
					<line id="Line_40" class="st5" x1="-2863.7" y1="-1309.4" x2="-2863.7" y2="-1851.2"/>
					<line id="Line_41" class="st5" x1="-2821.1" y1="-1309.4" x2="-2821.1" y2="-1851.2"/>
					<line id="Line_42" class="st5" x1="-2778.7" y1="-1309.4" x2="-2778.7" y2="-1851.2"/>
					<line id="Line_43" class="st5" x1="-2736.3" y1="-1309.4" x2="-2736.3" y2="-1851.2"/>
					<line id="Line_44" class="st5" x1="-2693.9" y1="-1309.4" x2="-2693.9" y2="-1851.2"/>
					<line id="Line_45" class="st5" x1="-2651.5" y1="-1309.4" x2="-2651.5" y2="-1851.2"/>
					<line id="Line_46" class="st5" x1="-2609.1" y1="-1309.4" x2="-2609.1" y2="-1851.2"/>
					<line id="Line_47" class="st5" x1="-2566.7" y1="-1309.4" x2="-2566.7" y2="-1851.2"/>
					<line id="Line_48" class="st5" x1="-2524.2" y1="-1309.4" x2="-2524.2" y2="-1851.2"/>
					<line id="Line_49" class="st5" x1="-2481.7" y1="-1309.4" x2="-2481.7" y2="-1851.2"/>
					<line id="Line_50" class="st5" x1="-2439.3" y1="-1309.4" x2="-2439.3" y2="-1851.2"/>
					<line id="Line_51" class="st5" x1="-2396.9" y1="-1309.4" x2="-2396.9" y2="-1851.2"/>
					<line id="Line_52" class="st5" x1="-2351.6" y1="-1309.9" x2="-2351.6" y2="-1850.1"/>
					<line id="Line_53" class="st5" x1="-2308.7" y1="-1309.4" x2="-2308.7" y2="-1851.2"/>
					<line id="Line_54" class="st5" x1="-2266.3" y1="-1309.4" x2="-2266.3" y2="-1851.2"/>
					<line id="Line_55" class="st5" x1="-2223.9" y1="-1309.4" x2="-2223.9" y2="-1851.2"/>
					<line id="Line_56" class="st5" x1="-2181.4" y1="-1309.4" x2="-2181.4" y2="-1851.2"/>
					<path id="Path_97" class="st6" d="M-2135.6-1309.4v-541.7"/>
					<line id="Line_58" class="st5" x1="-2093.2" y1="-1309.4" x2="-2093.2" y2="-1851.2"/>
					<line id="Line_59" class="st5" x1="-2050.8" y1="-1309.4" x2="-2050.8" y2="-1851.2"/>
				</g>
			</g>
		</g>
	</g>
</g>
</svg>