<svg xmlns="http://www.w3.org/2000/svg" xmlns:xlink="http://www.w3.org/1999/xlink" version="1.0" id="Layer_1" x="0px" y="0px" viewBox="0 0 512 512" style="enable-background:new 0 0 512 512;" xml:space="preserve">
	<style type="text/css">
		.st0{fill:#0c3c60;}
	</style>
	<path id="Path_39-2" class="st0" d="M469.3,213.3H298.7V42.7C298.7,19.1,279.6,0,256,0c-23.6,0-42.7,19.1-42.7,42.7v170.7H42.7  C19.1,213.3,0,232.4,0,256c0,23.6,19.1,42.7,42.7,42.7h170.7v170.7c0,23.6,19.1,42.7,42.7,42.7c23.6,0,42.7-19.1,42.7-42.7V298.7  h170.7c23.6,0,42.7-19.1,42.7-42.7C512,232.4,492.9,213.3,469.3,213.3L469.3,213.3z"/>
	</svg>